<?xml version="1.0" standalone="no"?>
<!DOCTYPE svg PUBLIC "-//W3C//DTD SVG 20010904//EN"
 "http://www.w3.org/TR/2001/REC-SVG-20010904/DTD/svg10.dtd">
<svg version="1.0" xmlns="http://www.w3.org/2000/svg"
 width="100.000000pt" height="100.000000pt" viewBox="0 0 100.000000 100.000000"
 preserveAspectRatio="xMidYMid meet">

<g transform="translate(0.000000,100.000000) scale(0.100000,-0.100000)"
fill="#000000" stroke="none">
<path d="M366 768 c-9 -29 -21 -75 -27 -102 -11 -45 -16 -50 -65 -73 -30 -13
-54 -29 -54 -33 0 -9 33 0 71 20 25 14 24 6 -7 -80 -26 -73 -27 -104 -1 -53 8
15 22 53 32 83 9 30 22 60 29 66 6 7 52 26 101 44 89 32 123 50 95 50 -8 0
-51 -14 -97 -31 -46 -18 -86 -30 -89 -27 -4 5 19 97 41 169 4 10 2 19 -4 19
-6 0 -17 -24 -25 -52z"/>
<path d="M710 620 c0 -5 5 -10 10 -10 6 0 10 5 10 10 0 6 -4 10 -10 10 -5 0
-10 -4 -10 -10z"/>
<path d="M655 580 c3 -5 8 -10 11 -10 2 0 4 5 4 10 0 6 -5 10 -11 10 -5 0 -7
-4 -4 -10z"/>
<path d="M716 544 c-20 -19 -20 -48 -1 -64 30 -25 76 9 60 46 -6 15 -8 16 -12
4 -13 -44 -13 -43 -28 -30 -14 12 -14 15 0 30 28 30 10 44 -19 14z"/>
<path d="M500 355 c-10 -12 -9 -15 7 -15 27 0 34 -9 22 -31 -13 -25 -39 -24
-39 1 0 11 -7 20 -15 20 -18 0 -20 -31 -3 -48 18 -18 53 -15 71 6 21 23 22 46
1 66 -19 20 -28 20 -44 1z"/>
<path d="M570 240 c0 -5 5 -10 10 -10 6 0 10 5 10 10 0 6 -4 10 -10 10 -5 0
-10 -4 -10 -10z"/>
<path d="M490 230 c0 -5 5 -10 11 -10 5 0 7 5 4 10 -3 6 -8 10 -11 10 -2 0 -4
-4 -4 -10z"/>
</g>
</svg>
